%TF.GenerationSoftware,KiCad,Pcbnew,7.0.7*%
%TF.CreationDate,2023-10-06T13:44:46-06:00*%
%TF.ProjectId,pico_flatflex,7069636f-5f66-46c6-9174-666c65782e6b,rev?*%
%TF.SameCoordinates,Original*%
%TF.FileFunction,Copper,L2,Bot*%
%TF.FilePolarity,Positive*%
%FSLAX46Y46*%
G04 Gerber Fmt 4.6, Leading zero omitted, Abs format (unit mm)*
G04 Created by KiCad (PCBNEW 7.0.7) date 2023-10-06 13:44:46*
%MOMM*%
%LPD*%
G01*
G04 APERTURE LIST*
%TA.AperFunction,ComponentPad*%
%ADD10C,1.500000*%
%TD*%
%TA.AperFunction,ComponentPad*%
%ADD11C,2.000000*%
%TD*%
%TA.AperFunction,ViaPad*%
%ADD12C,0.800000*%
%TD*%
%TA.AperFunction,Conductor*%
%ADD13C,0.250000*%
%TD*%
G04 APERTURE END LIST*
D10*
%TO.P,REF\u002A\u002A,1*%
%TO.N,N/C*%
X22047200Y-98653600D03*
%TD*%
%TO.P,REF\u002A\u002A,1*%
%TO.N,N/C*%
X28194000Y-95504000D03*
%TD*%
%TO.P,REF\u002A\u002A,1*%
%TO.N,N/C*%
X26162000Y-95961200D03*
%TD*%
%TO.P,REF\u002A\u002A,1*%
%TO.N,N/C*%
X24130000Y-98653600D03*
%TD*%
%TO.P,REF\u002A\u002A,1*%
%TO.N,N/C*%
X22098000Y-96088200D03*
%TD*%
%TO.P,REF\u002A\u002A,1*%
%TO.N,N/C*%
X28244800Y-98628200D03*
%TD*%
D11*
%TO.P,REF\u002A\u002A,1*%
%TO.N,N/C*%
X48895000Y-145415000D03*
%TD*%
D10*
%TO.P,REF\u002A\u002A,1*%
%TO.N,N/C*%
X24130000Y-95504000D03*
%TD*%
%TO.P,REF\u002A\u002A,1*%
%TO.N,N/C*%
X26162000Y-99136200D03*
%TD*%
D12*
%TO.N,*%
X46863000Y-151968200D03*
X46863000Y-144780000D03*
X29718000Y-102489000D03*
X30480000Y-103124000D03*
X21590000Y-127000000D03*
X28956000Y-132080000D03*
X21082000Y-94488000D03*
X40386000Y-132080000D03*
X26162000Y-102362000D03*
X47498000Y-150749000D03*
X46990000Y-117221000D03*
X21590000Y-119380000D03*
%TD*%
D13*
%TO.N,*%
X47498000Y-150749000D02*
X47498000Y-142468600D01*
X46863000Y-141833600D02*
X46863000Y-117348000D01*
X47498000Y-142468600D02*
X46863000Y-141833600D01*
X46863000Y-117348000D02*
X46990000Y-117221000D01*
X46863000Y-151968200D02*
X46863000Y-144780000D01*
X29718000Y-102489000D02*
X27178000Y-99949000D01*
X27178000Y-99949000D02*
X27178000Y-96520000D01*
X27178000Y-96520000D02*
X28194000Y-95504000D01*
X30480000Y-103124000D02*
X28067000Y-103124000D01*
X28067000Y-103124000D02*
X25146000Y-100203000D01*
X25146000Y-98298000D02*
X26162000Y-97282000D01*
X26162000Y-97282000D02*
X26162000Y-95961200D01*
X25146000Y-100203000D02*
X25146000Y-98298000D01*
X20574000Y-94996000D02*
X20574000Y-125984000D01*
X21082000Y-94488000D02*
X20574000Y-94996000D01*
X20574000Y-125984000D02*
X21590000Y-127000000D01*
X22352000Y-102362000D02*
X26162000Y-102362000D01*
X28956000Y-132080000D02*
X40386000Y-132080000D01*
X21590000Y-119380000D02*
X21590000Y-103124000D01*
X21590000Y-103124000D02*
X22352000Y-102362000D01*
%TD*%
M02*
