%TF.GenerationSoftware,KiCad,Pcbnew,7.0.7*%
%TF.CreationDate,2023-10-06T13:44:46-06:00*%
%TF.ProjectId,pico_flatflex,7069636f-5f66-46c6-9174-666c65782e6b,rev?*%
%TF.SameCoordinates,Original*%
%TF.FileFunction,Soldermask,Top*%
%TF.FilePolarity,Negative*%
%FSLAX46Y46*%
G04 Gerber Fmt 4.6, Leading zero omitted, Abs format (unit mm)*
G04 Created by KiCad (PCBNEW 7.0.7) date 2023-10-06 13:44:46*
%MOMM*%
%LPD*%
G01*
G04 APERTURE LIST*
%ADD10R,3.500000X1.700000*%
%ADD11C,1.500000*%
%ADD12C,2.000000*%
G04 APERTURE END LIST*
D10*
%TO.C,REF\u002A\u002A*%
X24500000Y-106680000D03*
X24500000Y-114300000D03*
X24500000Y-116840000D03*
X24500000Y-119380000D03*
X24500000Y-121920000D03*
X24500000Y-127000000D03*
X24500000Y-129540000D03*
X24500000Y-132080000D03*
X24500000Y-134620000D03*
X24500000Y-137160000D03*
X24500000Y-139700000D03*
X24500000Y-142240000D03*
X24500000Y-144780000D03*
X24500000Y-147320000D03*
X24500000Y-149860000D03*
X24500000Y-152400000D03*
X24500000Y-154940000D03*
X44080000Y-149860000D03*
X44080000Y-147320000D03*
X44080000Y-144780000D03*
X44080000Y-142240000D03*
X44080000Y-139700000D03*
X44080000Y-137160000D03*
X44080000Y-124460000D03*
X44080000Y-116840000D03*
X44080000Y-111760000D03*
X44080000Y-106680000D03*
%TD*%
D11*
%TO.C,REF\u002A\u002A*%
X49149000Y-151638000D03*
%TD*%
%TO.C,REF\u002A\u002A*%
X43815000Y-103378000D03*
%TD*%
%TO.C,\u002A\u002AREF*%
X36957000Y-103378000D03*
%TD*%
%TO.C,REF\u002A\u002A*%
X22047200Y-98653600D03*
%TD*%
%TO.C,REF\u002A\u002A*%
X28194000Y-95504000D03*
%TD*%
%TO.C,REF\u002A\u002A*%
X26162000Y-95961200D03*
%TD*%
%TO.C,REF\u002A\u002A*%
X24130000Y-98653600D03*
%TD*%
%TO.C,REF\u002A\u002A*%
X22098000Y-96088200D03*
%TD*%
%TO.C,REF\u002A\u002A*%
X28244800Y-98628200D03*
%TD*%
D12*
%TO.C,REF\u002A\u002A*%
X48895000Y-145415000D03*
%TD*%
D11*
%TO.C,REF\u002A\u002A*%
X24130000Y-95504000D03*
%TD*%
%TO.C,REF\u002A\u002A*%
X47117000Y-119507000D03*
%TD*%
%TO.C,REF\u002A\u002A*%
X26162000Y-99136200D03*
%TD*%
M02*
