%TF.GenerationSoftware,KiCad,Pcbnew,7.0.7*%
%TF.CreationDate,2023-10-06T13:44:46-06:00*%
%TF.ProjectId,pico_flatflex,7069636f-5f66-46c6-9174-666c65782e6b,rev?*%
%TF.SameCoordinates,Original*%
%TF.FileFunction,Copper,L1,Top*%
%TF.FilePolarity,Positive*%
%FSLAX46Y46*%
G04 Gerber Fmt 4.6, Leading zero omitted, Abs format (unit mm)*
G04 Created by KiCad (PCBNEW 7.0.7) date 2023-10-06 13:44:46*
%MOMM*%
%LPD*%
G01*
G04 APERTURE LIST*
%TA.AperFunction,SMDPad,CuDef*%
%ADD10R,3.500000X1.700000*%
%TD*%
%TA.AperFunction,SMDPad,CuDef*%
%ADD11C,1.500000*%
%TD*%
%TA.AperFunction,ComponentPad*%
%ADD12C,1.500000*%
%TD*%
%TA.AperFunction,ComponentPad*%
%ADD13C,2.000000*%
%TD*%
%TA.AperFunction,ViaPad*%
%ADD14C,0.800000*%
%TD*%
%TA.AperFunction,Conductor*%
%ADD15C,0.250000*%
%TD*%
G04 APERTURE END LIST*
D10*
%TO.P,REF\u002A\u002A,1*%
%TO.N,N/C*%
X24500000Y-106680000D03*
%TO.P,REF\u002A\u002A,4*%
X24500000Y-114300000D03*
%TO.P,REF\u002A\u002A,5*%
X24500000Y-116840000D03*
%TO.P,REF\u002A\u002A,6*%
X24500000Y-119380000D03*
%TO.P,REF\u002A\u002A,7*%
X24500000Y-121920000D03*
%TO.P,REF\u002A\u002A,9*%
X24500000Y-127000000D03*
%TO.P,REF\u002A\u002A,10*%
X24500000Y-129540000D03*
%TO.P,REF\u002A\u002A,11*%
X24500000Y-132080000D03*
%TO.P,REF\u002A\u002A,12*%
X24500000Y-134620000D03*
%TO.P,REF\u002A\u002A,13*%
X24500000Y-137160000D03*
%TO.P,REF\u002A\u002A,14*%
X24500000Y-139700000D03*
%TO.P,REF\u002A\u002A,15*%
X24500000Y-142240000D03*
%TO.P,REF\u002A\u002A,16*%
X24500000Y-144780000D03*
%TO.P,REF\u002A\u002A,17*%
X24500000Y-147320000D03*
%TO.P,REF\u002A\u002A,18*%
X24500000Y-149860000D03*
%TO.P,REF\u002A\u002A,19*%
X24500000Y-152400000D03*
%TO.P,REF\u002A\u002A,20*%
X24500000Y-154940000D03*
%TO.P,REF\u002A\u002A,23*%
X44080000Y-149860000D03*
%TO.P,REF\u002A\u002A,24*%
X44080000Y-147320000D03*
%TO.P,REF\u002A\u002A,25*%
X44080000Y-144780000D03*
%TO.P,REF\u002A\u002A,26*%
X44080000Y-142240000D03*
%TO.P,REF\u002A\u002A,27*%
X44080000Y-139700000D03*
%TO.P,REF\u002A\u002A,28*%
X44080000Y-137160000D03*
%TO.P,REF\u002A\u002A,33*%
X44080000Y-124460000D03*
%TO.P,REF\u002A\u002A,36*%
X44080000Y-116840000D03*
%TO.P,REF\u002A\u002A,38*%
X44080000Y-111760000D03*
%TO.P,REF\u002A\u002A,40*%
X44080000Y-106680000D03*
%TD*%
D11*
%TO.P,REF\u002A\u002A,1*%
%TO.N,N/C*%
X49149000Y-151638000D03*
%TD*%
%TO.P,REF\u002A\u002A,1*%
%TO.N,N/C*%
X43815000Y-103378000D03*
%TD*%
%TO.P,\u002A\u002AREF,1*%
%TO.N,N/C*%
X36957000Y-103378000D03*
%TD*%
D12*
%TO.P,REF\u002A\u002A,1*%
%TO.N,N/C*%
X22047200Y-98653600D03*
%TD*%
%TO.P,REF\u002A\u002A,1*%
%TO.N,N/C*%
X28194000Y-95504000D03*
%TD*%
%TO.P,REF\u002A\u002A,1*%
%TO.N,N/C*%
X26162000Y-95961200D03*
%TD*%
%TO.P,REF\u002A\u002A,1*%
%TO.N,N/C*%
X24130000Y-98653600D03*
%TD*%
%TO.P,REF\u002A\u002A,1*%
%TO.N,N/C*%
X22098000Y-96088200D03*
%TD*%
%TO.P,REF\u002A\u002A,1*%
%TO.N,N/C*%
X28244800Y-98628200D03*
%TD*%
D13*
%TO.P,REF\u002A\u002A,1*%
%TO.N,N/C*%
X48895000Y-145415000D03*
%TD*%
D12*
%TO.P,REF\u002A\u002A,1*%
%TO.N,N/C*%
X24130000Y-95504000D03*
%TD*%
D11*
%TO.P,REF\u002A\u002A,1*%
%TO.N,N/C*%
X47117000Y-119507000D03*
%TD*%
D12*
%TO.P,REF\u002A\u002A,1*%
%TO.N,N/C*%
X26162000Y-99136200D03*
%TD*%
D14*
%TO.N,*%
X46863000Y-151968200D03*
X46863000Y-144780000D03*
X29718000Y-102489000D03*
X30480000Y-103124000D03*
X21590000Y-127000000D03*
X28956000Y-132080000D03*
X21082000Y-94488000D03*
X40386000Y-132080000D03*
X26162000Y-102362000D03*
X47498000Y-150749000D03*
X46990000Y-117221000D03*
X21590000Y-119380000D03*
%TD*%
D15*
%TO.N,*%
X48260000Y-150749000D02*
X49149000Y-151638000D01*
X47498000Y-150749000D02*
X48260000Y-150749000D01*
X41148000Y-151968200D02*
X38176200Y-154940000D01*
X38176200Y-154940000D02*
X25400000Y-154940000D01*
X46863000Y-151968200D02*
X41148000Y-151968200D01*
X46863000Y-144780000D02*
X46863000Y-119888000D01*
X46863000Y-119888000D02*
X47244000Y-119507000D01*
X43180000Y-137160000D02*
X46101000Y-137160000D01*
X46101000Y-137160000D02*
X46228000Y-137287000D01*
X43180000Y-124460000D02*
X43230800Y-124409200D01*
X43230800Y-124409200D02*
X45872400Y-124409200D01*
X45872400Y-124409200D02*
X46228000Y-124764800D01*
X43180000Y-149860000D02*
X48514000Y-149860000D01*
X48514000Y-149860000D02*
X48895000Y-149479000D01*
X48895000Y-149479000D02*
X48895000Y-146177000D01*
X48895000Y-146177000D02*
X49657000Y-145415000D01*
X46990000Y-117221000D02*
X46609000Y-116840000D01*
X46609000Y-116840000D02*
X43180000Y-116840000D01*
X46228000Y-124764800D02*
X46228000Y-137287000D01*
X46228000Y-137287000D02*
X46228000Y-137922000D01*
X46228000Y-137922000D02*
X46228000Y-149860000D01*
X27178000Y-140462000D02*
X30480000Y-137160000D01*
X30480000Y-137160000D02*
X30480000Y-105410000D01*
X30480000Y-105410000D02*
X31369000Y-104521000D01*
X31369000Y-104521000D02*
X35814000Y-104521000D01*
X35814000Y-104521000D02*
X36957000Y-103378000D01*
X30861000Y-105537000D02*
X31496000Y-104902000D01*
X31496000Y-104902000D02*
X42291000Y-104902000D01*
X42291000Y-104902000D02*
X43815000Y-103378000D01*
X30861000Y-146939000D02*
X30861000Y-105537000D01*
X29718000Y-131318000D02*
X28956000Y-132080000D01*
X29718000Y-102489000D02*
X29718000Y-131318000D01*
X30099000Y-103505000D02*
X30099000Y-134239000D01*
X30480000Y-103124000D02*
X30099000Y-103505000D01*
X30099000Y-134239000D02*
X29718000Y-134620000D01*
X29718000Y-134620000D02*
X25400000Y-134620000D01*
X21082000Y-94488000D02*
X23114000Y-94488000D01*
X23114000Y-94488000D02*
X24130000Y-95504000D01*
X20574000Y-96266000D02*
X20751800Y-96088200D01*
X20574000Y-127762000D02*
X20574000Y-96266000D01*
X22352000Y-129540000D02*
X20574000Y-127762000D01*
X20751800Y-96088200D02*
X22098000Y-96088200D01*
X25400000Y-129540000D02*
X22352000Y-129540000D01*
X21590000Y-103124000D02*
X22047200Y-102666800D01*
X41148000Y-143002000D02*
X41148000Y-145542000D01*
X22352000Y-121920000D02*
X25400000Y-121920000D01*
X25400000Y-139700000D02*
X26416000Y-139700000D01*
X22047200Y-102666800D02*
X22047200Y-98653600D01*
X27432000Y-119380000D02*
X28244800Y-118567200D01*
X27178000Y-143764000D02*
X27178000Y-144018000D01*
X26416000Y-144780000D02*
X25400000Y-144780000D01*
X43180000Y-139700000D02*
X41656000Y-139700000D01*
X27178000Y-144018000D02*
X26416000Y-144780000D01*
X26416000Y-147320000D02*
X27178000Y-146558000D01*
X41935400Y-111760000D02*
X41503600Y-112191800D01*
X28244800Y-118567200D02*
X28244800Y-98628200D01*
X26670000Y-142240000D02*
X27178000Y-142748000D01*
X40386000Y-139446000D02*
X41148000Y-140208000D01*
X26162000Y-99136200D02*
X26162000Y-102362000D01*
X27432000Y-113538000D02*
X27432000Y-105156000D01*
X25400000Y-147320000D02*
X26416000Y-147320000D01*
X28956000Y-132080000D02*
X25400000Y-132080000D01*
X27178000Y-142748000D02*
X27178000Y-143764000D01*
X21590000Y-116078000D02*
X21590000Y-103124000D01*
X25400000Y-114300000D02*
X26670000Y-114300000D01*
X25400000Y-152400000D02*
X30861000Y-146939000D01*
X41148000Y-145542000D02*
X41148000Y-146558000D01*
X22733000Y-149860000D02*
X25400000Y-149860000D01*
X21590000Y-121158000D02*
X22352000Y-121920000D01*
X22098000Y-149225000D02*
X22733000Y-149860000D01*
X40386000Y-132080000D02*
X40386000Y-139446000D01*
X43180000Y-142240000D02*
X41910000Y-142240000D01*
X25400000Y-137160000D02*
X22606000Y-137160000D01*
X25400000Y-142240000D02*
X26670000Y-142240000D01*
X41503600Y-112191800D02*
X41503600Y-123952000D01*
X43180000Y-144780000D02*
X41910000Y-144780000D01*
X24638000Y-104140000D02*
X24130000Y-103632000D01*
X27178000Y-146558000D02*
X27178000Y-143764000D01*
X43180000Y-111760000D02*
X41935400Y-111760000D01*
X21590000Y-119380000D02*
X21590000Y-121158000D01*
X22098000Y-137668000D02*
X22098000Y-149225000D01*
X21590000Y-127000000D02*
X25400000Y-127000000D01*
X25400000Y-116840000D02*
X22352000Y-116840000D01*
X25400000Y-119380000D02*
X27432000Y-119380000D01*
X26416000Y-139700000D02*
X27178000Y-140462000D01*
X41148000Y-146558000D02*
X41910000Y-147320000D01*
X41910000Y-147320000D02*
X43180000Y-147320000D01*
X41503600Y-123952000D02*
X42011600Y-124460000D01*
X22352000Y-116840000D02*
X21590000Y-116078000D01*
X27432000Y-105156000D02*
X26416000Y-104140000D01*
X41656000Y-139700000D02*
X41148000Y-140208000D01*
X27178000Y-140462000D02*
X27178000Y-142748000D01*
X41148000Y-140208000D02*
X41148000Y-143002000D01*
X41910000Y-142240000D02*
X41148000Y-143002000D01*
X24130000Y-103632000D02*
X24130000Y-98653600D01*
X26670000Y-114300000D02*
X27432000Y-113538000D01*
X41910000Y-144780000D02*
X41148000Y-145542000D01*
X42011600Y-124460000D02*
X43180000Y-124460000D01*
X22606000Y-137160000D02*
X22098000Y-137668000D01*
X26416000Y-104140000D02*
X24638000Y-104140000D01*
%TD*%
M02*
