%TF.GenerationSoftware,KiCad,Pcbnew,7.0.7*%
%TF.CreationDate,2023-10-06T13:44:46-06:00*%
%TF.ProjectId,pico_flatflex,7069636f-5f66-46c6-9174-666c65782e6b,rev?*%
%TF.SameCoordinates,Original*%
%TF.FileFunction,Legend,Top*%
%TF.FilePolarity,Positive*%
%FSLAX46Y46*%
G04 Gerber Fmt 4.6, Leading zero omitted, Abs format (unit mm)*
G04 Created by KiCad (PCBNEW 7.0.7) date 2023-10-06 13:44:46*
%MOMM*%
%LPD*%
G01*
G04 APERTURE LIST*
%ADD10C,0.300000*%
%ADD11C,0.150000*%
%ADD12C,0.200000*%
%ADD13C,0.120000*%
G04 APERTURE END LIST*
D10*
X36757828Y-146130489D02*
X35257828Y-146130489D01*
X35829257Y-146130489D02*
X35757828Y-145987632D01*
X35757828Y-145987632D02*
X35757828Y-145701917D01*
X35757828Y-145701917D02*
X35829257Y-145559060D01*
X35829257Y-145559060D02*
X35900685Y-145487632D01*
X35900685Y-145487632D02*
X36043542Y-145416203D01*
X36043542Y-145416203D02*
X36472114Y-145416203D01*
X36472114Y-145416203D02*
X36614971Y-145487632D01*
X36614971Y-145487632D02*
X36686400Y-145559060D01*
X36686400Y-145559060D02*
X36757828Y-145701917D01*
X36757828Y-145701917D02*
X36757828Y-145987632D01*
X36757828Y-145987632D02*
X36686400Y-146130489D01*
X35757828Y-144916203D02*
X36757828Y-144559060D01*
X35757828Y-144201917D02*
X36757828Y-144559060D01*
X36757828Y-144559060D02*
X37114971Y-144701917D01*
X37114971Y-144701917D02*
X37186400Y-144773346D01*
X37186400Y-144773346D02*
X37257828Y-144916203D01*
X36043542Y-141559060D02*
X35972114Y-141630489D01*
X35972114Y-141630489D02*
X35900685Y-141773346D01*
X35900685Y-141773346D02*
X35900685Y-141916203D01*
X35900685Y-141916203D02*
X35972114Y-142059060D01*
X35972114Y-142059060D02*
X36043542Y-142130489D01*
X36043542Y-142130489D02*
X36186400Y-142201917D01*
X36186400Y-142201917D02*
X36329257Y-142201917D01*
X36329257Y-142201917D02*
X36472114Y-142130489D01*
X36472114Y-142130489D02*
X36543542Y-142059060D01*
X36543542Y-142059060D02*
X36614971Y-141916203D01*
X36614971Y-141916203D02*
X36614971Y-141773346D01*
X36614971Y-141773346D02*
X36543542Y-141630489D01*
X36543542Y-141630489D02*
X36472114Y-141559060D01*
X35900685Y-141559060D02*
X36472114Y-141559060D01*
X36472114Y-141559060D02*
X36543542Y-141487632D01*
X36543542Y-141487632D02*
X36543542Y-141416203D01*
X36543542Y-141416203D02*
X36472114Y-141273346D01*
X36472114Y-141273346D02*
X36329257Y-141201917D01*
X36329257Y-141201917D02*
X35972114Y-141201917D01*
X35972114Y-141201917D02*
X35757828Y-141344775D01*
X35757828Y-141344775D02*
X35614971Y-141559060D01*
X35614971Y-141559060D02*
X35543542Y-141844775D01*
X35543542Y-141844775D02*
X35614971Y-142130489D01*
X35614971Y-142130489D02*
X35757828Y-142344775D01*
X35757828Y-142344775D02*
X35972114Y-142487632D01*
X35972114Y-142487632D02*
X36257828Y-142559060D01*
X36257828Y-142559060D02*
X36543542Y-142487632D01*
X36543542Y-142487632D02*
X36757828Y-142344775D01*
X36757828Y-142344775D02*
X36900685Y-142130489D01*
X36900685Y-142130489D02*
X36972114Y-141844775D01*
X36972114Y-141844775D02*
X36900685Y-141559060D01*
X36900685Y-141559060D02*
X36757828Y-141344775D01*
X36686400Y-140630489D02*
X36757828Y-140416204D01*
X36757828Y-140416204D02*
X36757828Y-140059061D01*
X36757828Y-140059061D02*
X36686400Y-139916204D01*
X36686400Y-139916204D02*
X36614971Y-139844775D01*
X36614971Y-139844775D02*
X36472114Y-139773346D01*
X36472114Y-139773346D02*
X36329257Y-139773346D01*
X36329257Y-139773346D02*
X36186400Y-139844775D01*
X36186400Y-139844775D02*
X36114971Y-139916204D01*
X36114971Y-139916204D02*
X36043542Y-140059061D01*
X36043542Y-140059061D02*
X35972114Y-140344775D01*
X35972114Y-140344775D02*
X35900685Y-140487632D01*
X35900685Y-140487632D02*
X35829257Y-140559061D01*
X35829257Y-140559061D02*
X35686400Y-140630489D01*
X35686400Y-140630489D02*
X35543542Y-140630489D01*
X35543542Y-140630489D02*
X35400685Y-140559061D01*
X35400685Y-140559061D02*
X35329257Y-140487632D01*
X35329257Y-140487632D02*
X35257828Y-140344775D01*
X35257828Y-140344775D02*
X35257828Y-139987632D01*
X35257828Y-139987632D02*
X35329257Y-139773346D01*
X36757828Y-139130490D02*
X35257828Y-139130490D01*
X36757828Y-138487633D02*
X35972114Y-138487633D01*
X35972114Y-138487633D02*
X35829257Y-138559061D01*
X35829257Y-138559061D02*
X35757828Y-138701918D01*
X35757828Y-138701918D02*
X35757828Y-138916204D01*
X35757828Y-138916204D02*
X35829257Y-139059061D01*
X35829257Y-139059061D02*
X35900685Y-139130490D01*
X36757828Y-137773347D02*
X35757828Y-137773347D01*
X35257828Y-137773347D02*
X35329257Y-137844775D01*
X35329257Y-137844775D02*
X35400685Y-137773347D01*
X35400685Y-137773347D02*
X35329257Y-137701918D01*
X35329257Y-137701918D02*
X35257828Y-137773347D01*
X35257828Y-137773347D02*
X35400685Y-137773347D01*
X35757828Y-137059061D02*
X36757828Y-137059061D01*
X35900685Y-137059061D02*
X35829257Y-136987632D01*
X35829257Y-136987632D02*
X35757828Y-136844775D01*
X35757828Y-136844775D02*
X35757828Y-136630489D01*
X35757828Y-136630489D02*
X35829257Y-136487632D01*
X35829257Y-136487632D02*
X35972114Y-136416204D01*
X35972114Y-136416204D02*
X36757828Y-136416204D01*
X35757828Y-135844775D02*
X36757828Y-135487632D01*
X35757828Y-135130489D02*
X36757828Y-135487632D01*
X36757828Y-135487632D02*
X37114971Y-135630489D01*
X37114971Y-135630489D02*
X37186400Y-135701918D01*
X37186400Y-135701918D02*
X37257828Y-135844775D01*
X36900685Y-133559061D02*
X36829257Y-133701918D01*
X36829257Y-133701918D02*
X36686400Y-133844775D01*
X36686400Y-133844775D02*
X36472114Y-134059061D01*
X36472114Y-134059061D02*
X36400685Y-134201918D01*
X36400685Y-134201918D02*
X36400685Y-134344775D01*
X36757828Y-134273346D02*
X36686400Y-134416204D01*
X36686400Y-134416204D02*
X36543542Y-134559061D01*
X36543542Y-134559061D02*
X36257828Y-134630489D01*
X36257828Y-134630489D02*
X35757828Y-134630489D01*
X35757828Y-134630489D02*
X35472114Y-134559061D01*
X35472114Y-134559061D02*
X35329257Y-134416204D01*
X35329257Y-134416204D02*
X35257828Y-134273346D01*
X35257828Y-134273346D02*
X35257828Y-133987632D01*
X35257828Y-133987632D02*
X35329257Y-133844775D01*
X35329257Y-133844775D02*
X35472114Y-133701918D01*
X35472114Y-133701918D02*
X35757828Y-133630489D01*
X35757828Y-133630489D02*
X36257828Y-133630489D01*
X36257828Y-133630489D02*
X36543542Y-133701918D01*
X36543542Y-133701918D02*
X36686400Y-133844775D01*
X36686400Y-133844775D02*
X36757828Y-133987632D01*
X36757828Y-133987632D02*
X36757828Y-134273346D01*
X35757828Y-132344775D02*
X36757828Y-132344775D01*
X35757828Y-132987632D02*
X36543542Y-132987632D01*
X36543542Y-132987632D02*
X36686400Y-132916203D01*
X36686400Y-132916203D02*
X36757828Y-132773346D01*
X36757828Y-132773346D02*
X36757828Y-132559060D01*
X36757828Y-132559060D02*
X36686400Y-132416203D01*
X36686400Y-132416203D02*
X36614971Y-132344775D01*
X36757828Y-130987632D02*
X35972114Y-130987632D01*
X35972114Y-130987632D02*
X35829257Y-131059060D01*
X35829257Y-131059060D02*
X35757828Y-131201917D01*
X35757828Y-131201917D02*
X35757828Y-131487632D01*
X35757828Y-131487632D02*
X35829257Y-131630489D01*
X36686400Y-130987632D02*
X36757828Y-131130489D01*
X36757828Y-131130489D02*
X36757828Y-131487632D01*
X36757828Y-131487632D02*
X36686400Y-131630489D01*
X36686400Y-131630489D02*
X36543542Y-131701917D01*
X36543542Y-131701917D02*
X36400685Y-131701917D01*
X36400685Y-131701917D02*
X36257828Y-131630489D01*
X36257828Y-131630489D02*
X36186400Y-131487632D01*
X36186400Y-131487632D02*
X36186400Y-131130489D01*
X36186400Y-131130489D02*
X36114971Y-130987632D01*
X35757828Y-129630489D02*
X36972114Y-129630489D01*
X36972114Y-129630489D02*
X37114971Y-129701917D01*
X37114971Y-129701917D02*
X37186400Y-129773346D01*
X37186400Y-129773346D02*
X37257828Y-129916203D01*
X37257828Y-129916203D02*
X37257828Y-130130489D01*
X37257828Y-130130489D02*
X37186400Y-130273346D01*
X36686400Y-129630489D02*
X36757828Y-129773346D01*
X36757828Y-129773346D02*
X36757828Y-130059060D01*
X36757828Y-130059060D02*
X36686400Y-130201917D01*
X36686400Y-130201917D02*
X36614971Y-130273346D01*
X36614971Y-130273346D02*
X36472114Y-130344774D01*
X36472114Y-130344774D02*
X36043542Y-130344774D01*
X36043542Y-130344774D02*
X35900685Y-130273346D01*
X35900685Y-130273346D02*
X35829257Y-130201917D01*
X35829257Y-130201917D02*
X35757828Y-130059060D01*
X35757828Y-130059060D02*
X35757828Y-129773346D01*
X35757828Y-129773346D02*
X35829257Y-129630489D01*
X36686400Y-128987631D02*
X36757828Y-128844774D01*
X36757828Y-128844774D02*
X36757828Y-128559060D01*
X36757828Y-128559060D02*
X36686400Y-128416203D01*
X36686400Y-128416203D02*
X36543542Y-128344774D01*
X36543542Y-128344774D02*
X36472114Y-128344774D01*
X36472114Y-128344774D02*
X36329257Y-128416203D01*
X36329257Y-128416203D02*
X36257828Y-128559060D01*
X36257828Y-128559060D02*
X36257828Y-128773346D01*
X36257828Y-128773346D02*
X36186400Y-128916203D01*
X36186400Y-128916203D02*
X36043542Y-128987631D01*
X36043542Y-128987631D02*
X35972114Y-128987631D01*
X35972114Y-128987631D02*
X35829257Y-128916203D01*
X35829257Y-128916203D02*
X35757828Y-128773346D01*
X35757828Y-128773346D02*
X35757828Y-128559060D01*
X35757828Y-128559060D02*
X35829257Y-128416203D01*
X36757828Y-127701917D02*
X35757828Y-127701917D01*
X35257828Y-127701917D02*
X35329257Y-127773345D01*
X35329257Y-127773345D02*
X35400685Y-127701917D01*
X35400685Y-127701917D02*
X35329257Y-127630488D01*
X35329257Y-127630488D02*
X35257828Y-127701917D01*
X35257828Y-127701917D02*
X35400685Y-127701917D01*
X36757828Y-126987631D02*
X35757828Y-126987631D01*
X36043542Y-126987631D02*
X35900685Y-126916202D01*
X35900685Y-126916202D02*
X35829257Y-126844774D01*
X35829257Y-126844774D02*
X35757828Y-126701916D01*
X35757828Y-126701916D02*
X35757828Y-126559059D01*
X36686400Y-125487631D02*
X36757828Y-125630488D01*
X36757828Y-125630488D02*
X36757828Y-125916203D01*
X36757828Y-125916203D02*
X36686400Y-126059060D01*
X36686400Y-126059060D02*
X36543542Y-126130488D01*
X36543542Y-126130488D02*
X35972114Y-126130488D01*
X35972114Y-126130488D02*
X35829257Y-126059060D01*
X35829257Y-126059060D02*
X35757828Y-125916203D01*
X35757828Y-125916203D02*
X35757828Y-125630488D01*
X35757828Y-125630488D02*
X35829257Y-125487631D01*
X35829257Y-125487631D02*
X35972114Y-125416203D01*
X35972114Y-125416203D02*
X36114971Y-125416203D01*
X36114971Y-125416203D02*
X36257828Y-126130488D01*
X34344828Y-145487632D02*
X32844828Y-145487632D01*
X34273400Y-145487632D02*
X34344828Y-145630489D01*
X34344828Y-145630489D02*
X34344828Y-145916203D01*
X34344828Y-145916203D02*
X34273400Y-146059060D01*
X34273400Y-146059060D02*
X34201971Y-146130489D01*
X34201971Y-146130489D02*
X34059114Y-146201917D01*
X34059114Y-146201917D02*
X33630542Y-146201917D01*
X33630542Y-146201917D02*
X33487685Y-146130489D01*
X33487685Y-146130489D02*
X33416257Y-146059060D01*
X33416257Y-146059060D02*
X33344828Y-145916203D01*
X33344828Y-145916203D02*
X33344828Y-145630489D01*
X33344828Y-145630489D02*
X33416257Y-145487632D01*
X34273400Y-144201917D02*
X34344828Y-144344774D01*
X34344828Y-144344774D02*
X34344828Y-144630489D01*
X34344828Y-144630489D02*
X34273400Y-144773346D01*
X34273400Y-144773346D02*
X34130542Y-144844774D01*
X34130542Y-144844774D02*
X33559114Y-144844774D01*
X33559114Y-144844774D02*
X33416257Y-144773346D01*
X33416257Y-144773346D02*
X33344828Y-144630489D01*
X33344828Y-144630489D02*
X33344828Y-144344774D01*
X33344828Y-144344774D02*
X33416257Y-144201917D01*
X33416257Y-144201917D02*
X33559114Y-144130489D01*
X33559114Y-144130489D02*
X33701971Y-144130489D01*
X33701971Y-144130489D02*
X33844828Y-144844774D01*
X34487685Y-143844775D02*
X34487685Y-142701917D01*
X33559114Y-141844775D02*
X33559114Y-142344775D01*
X34344828Y-142344775D02*
X32844828Y-142344775D01*
X32844828Y-142344775D02*
X32844828Y-141630489D01*
X33344828Y-140416204D02*
X34344828Y-140416204D01*
X33344828Y-141059061D02*
X34130542Y-141059061D01*
X34130542Y-141059061D02*
X34273400Y-140987632D01*
X34273400Y-140987632D02*
X34344828Y-140844775D01*
X34344828Y-140844775D02*
X34344828Y-140630489D01*
X34344828Y-140630489D02*
X34273400Y-140487632D01*
X34273400Y-140487632D02*
X34201971Y-140416204D01*
X34273400Y-139773346D02*
X34344828Y-139630489D01*
X34344828Y-139630489D02*
X34344828Y-139344775D01*
X34344828Y-139344775D02*
X34273400Y-139201918D01*
X34273400Y-139201918D02*
X34130542Y-139130489D01*
X34130542Y-139130489D02*
X34059114Y-139130489D01*
X34059114Y-139130489D02*
X33916257Y-139201918D01*
X33916257Y-139201918D02*
X33844828Y-139344775D01*
X33844828Y-139344775D02*
X33844828Y-139559061D01*
X33844828Y-139559061D02*
X33773400Y-139701918D01*
X33773400Y-139701918D02*
X33630542Y-139773346D01*
X33630542Y-139773346D02*
X33559114Y-139773346D01*
X33559114Y-139773346D02*
X33416257Y-139701918D01*
X33416257Y-139701918D02*
X33344828Y-139559061D01*
X33344828Y-139559061D02*
X33344828Y-139344775D01*
X33344828Y-139344775D02*
X33416257Y-139201918D01*
X34273400Y-137916203D02*
X34344828Y-138059060D01*
X34344828Y-138059060D02*
X34344828Y-138344775D01*
X34344828Y-138344775D02*
X34273400Y-138487632D01*
X34273400Y-138487632D02*
X34130542Y-138559060D01*
X34130542Y-138559060D02*
X33559114Y-138559060D01*
X33559114Y-138559060D02*
X33416257Y-138487632D01*
X33416257Y-138487632D02*
X33344828Y-138344775D01*
X33344828Y-138344775D02*
X33344828Y-138059060D01*
X33344828Y-138059060D02*
X33416257Y-137916203D01*
X33416257Y-137916203D02*
X33559114Y-137844775D01*
X33559114Y-137844775D02*
X33701971Y-137844775D01*
X33701971Y-137844775D02*
X33844828Y-138559060D01*
X33344828Y-136273346D02*
X33344828Y-135701918D01*
X34344828Y-136059061D02*
X33059114Y-136059061D01*
X33059114Y-136059061D02*
X32916257Y-135987632D01*
X32916257Y-135987632D02*
X32844828Y-135844775D01*
X32844828Y-135844775D02*
X32844828Y-135701918D01*
X34344828Y-134987632D02*
X34273400Y-135130489D01*
X34273400Y-135130489D02*
X34130542Y-135201918D01*
X34130542Y-135201918D02*
X32844828Y-135201918D01*
X34344828Y-133773347D02*
X33559114Y-133773347D01*
X33559114Y-133773347D02*
X33416257Y-133844775D01*
X33416257Y-133844775D02*
X33344828Y-133987632D01*
X33344828Y-133987632D02*
X33344828Y-134273347D01*
X33344828Y-134273347D02*
X33416257Y-134416204D01*
X34273400Y-133773347D02*
X34344828Y-133916204D01*
X34344828Y-133916204D02*
X34344828Y-134273347D01*
X34344828Y-134273347D02*
X34273400Y-134416204D01*
X34273400Y-134416204D02*
X34130542Y-134487632D01*
X34130542Y-134487632D02*
X33987685Y-134487632D01*
X33987685Y-134487632D02*
X33844828Y-134416204D01*
X33844828Y-134416204D02*
X33773400Y-134273347D01*
X33773400Y-134273347D02*
X33773400Y-133916204D01*
X33773400Y-133916204D02*
X33701971Y-133773347D01*
X33344828Y-133273346D02*
X33344828Y-132701918D01*
X32844828Y-133059061D02*
X34130542Y-133059061D01*
X34130542Y-133059061D02*
X34273400Y-132987632D01*
X34273400Y-132987632D02*
X34344828Y-132844775D01*
X34344828Y-132844775D02*
X34344828Y-132701918D01*
X33344828Y-131273346D02*
X33344828Y-130701918D01*
X34344828Y-131059061D02*
X33059114Y-131059061D01*
X33059114Y-131059061D02*
X32916257Y-130987632D01*
X32916257Y-130987632D02*
X32844828Y-130844775D01*
X32844828Y-130844775D02*
X32844828Y-130701918D01*
X34344828Y-129987632D02*
X34273400Y-130130489D01*
X34273400Y-130130489D02*
X34130542Y-130201918D01*
X34130542Y-130201918D02*
X32844828Y-130201918D01*
X34273400Y-128844775D02*
X34344828Y-128987632D01*
X34344828Y-128987632D02*
X34344828Y-129273347D01*
X34344828Y-129273347D02*
X34273400Y-129416204D01*
X34273400Y-129416204D02*
X34130542Y-129487632D01*
X34130542Y-129487632D02*
X33559114Y-129487632D01*
X33559114Y-129487632D02*
X33416257Y-129416204D01*
X33416257Y-129416204D02*
X33344828Y-129273347D01*
X33344828Y-129273347D02*
X33344828Y-128987632D01*
X33344828Y-128987632D02*
X33416257Y-128844775D01*
X33416257Y-128844775D02*
X33559114Y-128773347D01*
X33559114Y-128773347D02*
X33701971Y-128773347D01*
X33701971Y-128773347D02*
X33844828Y-129487632D01*
X34344828Y-128273347D02*
X33344828Y-127487633D01*
X33344828Y-128273347D02*
X34344828Y-127487633D01*
D11*
X42824400Y-103378000D02*
X42621200Y-103378000D01*
X35966400Y-103378000D02*
X35763200Y-103378000D01*
X49809400Y-150901400D02*
X50088800Y-150672800D01*
X48818800Y-143891000D02*
X48310800Y-143459200D01*
X47117000Y-120497600D02*
X47371000Y-120840500D01*
D12*
X47262790Y-143530898D02*
X47224695Y-143607088D01*
X47224695Y-143607088D02*
X47224695Y-143721374D01*
X47224695Y-143721374D02*
X47262790Y-143835660D01*
X47262790Y-143835660D02*
X47338980Y-143911850D01*
X47338980Y-143911850D02*
X47415171Y-143949945D01*
X47415171Y-143949945D02*
X47567552Y-143988041D01*
X47567552Y-143988041D02*
X47681838Y-143988041D01*
X47681838Y-143988041D02*
X47834219Y-143949945D01*
X47834219Y-143949945D02*
X47910409Y-143911850D01*
X47910409Y-143911850D02*
X47986600Y-143835660D01*
X47986600Y-143835660D02*
X48024695Y-143721374D01*
X48024695Y-143721374D02*
X48024695Y-143645183D01*
X48024695Y-143645183D02*
X47986600Y-143530898D01*
X47986600Y-143530898D02*
X47948504Y-143492802D01*
X47948504Y-143492802D02*
X47681838Y-143492802D01*
X47681838Y-143492802D02*
X47681838Y-143645183D01*
X48024695Y-143149945D02*
X47224695Y-143149945D01*
X47224695Y-143149945D02*
X48024695Y-142692802D01*
X48024695Y-142692802D02*
X47224695Y-142692802D01*
X48024695Y-142311850D02*
X47224695Y-142311850D01*
X47224695Y-142311850D02*
X47224695Y-142121374D01*
X47224695Y-142121374D02*
X47262790Y-142007088D01*
X47262790Y-142007088D02*
X47338980Y-141930898D01*
X47338980Y-141930898D02*
X47415171Y-141892803D01*
X47415171Y-141892803D02*
X47567552Y-141854707D01*
X47567552Y-141854707D02*
X47681838Y-141854707D01*
X47681838Y-141854707D02*
X47834219Y-141892803D01*
X47834219Y-141892803D02*
X47910409Y-141930898D01*
X47910409Y-141930898D02*
X47986600Y-142007088D01*
X47986600Y-142007088D02*
X48024695Y-142121374D01*
X48024695Y-142121374D02*
X48024695Y-142311850D01*
X47097695Y-124455431D02*
X47097695Y-123998288D01*
X47897695Y-124226860D02*
X47097695Y-124226860D01*
X47897695Y-123731621D02*
X47097695Y-123731621D01*
X47097695Y-123731621D02*
X47097695Y-123426859D01*
X47097695Y-123426859D02*
X47135790Y-123350669D01*
X47135790Y-123350669D02*
X47173885Y-123312574D01*
X47173885Y-123312574D02*
X47250076Y-123274478D01*
X47250076Y-123274478D02*
X47364361Y-123274478D01*
X47364361Y-123274478D02*
X47440552Y-123312574D01*
X47440552Y-123312574D02*
X47478647Y-123350669D01*
X47478647Y-123350669D02*
X47516742Y-123426859D01*
X47516742Y-123426859D02*
X47516742Y-123731621D01*
X47897695Y-122512574D02*
X47897695Y-122969717D01*
X47897695Y-122741145D02*
X47097695Y-122741145D01*
X47097695Y-122741145D02*
X47211980Y-122817336D01*
X47211980Y-122817336D02*
X47288171Y-122893526D01*
X47288171Y-122893526D02*
X47326266Y-122969717D01*
X47364361Y-121826859D02*
X47897695Y-121826859D01*
X47059600Y-122017335D02*
X47631028Y-122207812D01*
X47631028Y-122207812D02*
X47631028Y-121712573D01*
X47364361Y-121064954D02*
X47897695Y-121064954D01*
X47059600Y-121255430D02*
X47631028Y-121445907D01*
X47631028Y-121445907D02*
X47631028Y-120950668D01*
X49637695Y-150541231D02*
X49637695Y-150084088D01*
X50437695Y-150312660D02*
X49637695Y-150312660D01*
X50437695Y-149817421D02*
X49637695Y-149817421D01*
X49637695Y-149817421D02*
X49637695Y-149512659D01*
X49637695Y-149512659D02*
X49675790Y-149436469D01*
X49675790Y-149436469D02*
X49713885Y-149398374D01*
X49713885Y-149398374D02*
X49790076Y-149360278D01*
X49790076Y-149360278D02*
X49904361Y-149360278D01*
X49904361Y-149360278D02*
X49980552Y-149398374D01*
X49980552Y-149398374D02*
X50018647Y-149436469D01*
X50018647Y-149436469D02*
X50056742Y-149512659D01*
X50056742Y-149512659D02*
X50056742Y-149817421D01*
X50437695Y-148598374D02*
X50437695Y-149055517D01*
X50437695Y-148826945D02*
X49637695Y-148826945D01*
X49637695Y-148826945D02*
X49751980Y-148903136D01*
X49751980Y-148903136D02*
X49828171Y-148979326D01*
X49828171Y-148979326D02*
X49866266Y-149055517D01*
X49713885Y-148293612D02*
X49675790Y-148255516D01*
X49675790Y-148255516D02*
X49637695Y-148179326D01*
X49637695Y-148179326D02*
X49637695Y-147988850D01*
X49637695Y-147988850D02*
X49675790Y-147912659D01*
X49675790Y-147912659D02*
X49713885Y-147874564D01*
X49713885Y-147874564D02*
X49790076Y-147836469D01*
X49790076Y-147836469D02*
X49866266Y-147836469D01*
X49866266Y-147836469D02*
X49980552Y-147874564D01*
X49980552Y-147874564D02*
X50437695Y-148331707D01*
X50437695Y-148331707D02*
X50437695Y-147836469D01*
X49713885Y-147531707D02*
X49675790Y-147493611D01*
X49675790Y-147493611D02*
X49637695Y-147417421D01*
X49637695Y-147417421D02*
X49637695Y-147226945D01*
X49637695Y-147226945D02*
X49675790Y-147150754D01*
X49675790Y-147150754D02*
X49713885Y-147112659D01*
X49713885Y-147112659D02*
X49790076Y-147074564D01*
X49790076Y-147074564D02*
X49866266Y-147074564D01*
X49866266Y-147074564D02*
X49980552Y-147112659D01*
X49980552Y-147112659D02*
X50437695Y-147569802D01*
X50437695Y-147569802D02*
X50437695Y-147074564D01*
X39069768Y-102977695D02*
X39526911Y-102977695D01*
X39298339Y-103777695D02*
X39298339Y-102977695D01*
X39793578Y-103777695D02*
X39793578Y-102977695D01*
X39793578Y-102977695D02*
X40098340Y-102977695D01*
X40098340Y-102977695D02*
X40174530Y-103015790D01*
X40174530Y-103015790D02*
X40212625Y-103053885D01*
X40212625Y-103053885D02*
X40250721Y-103130076D01*
X40250721Y-103130076D02*
X40250721Y-103244361D01*
X40250721Y-103244361D02*
X40212625Y-103320552D01*
X40212625Y-103320552D02*
X40174530Y-103358647D01*
X40174530Y-103358647D02*
X40098340Y-103396742D01*
X40098340Y-103396742D02*
X39793578Y-103396742D01*
X41012625Y-103777695D02*
X40555482Y-103777695D01*
X40784054Y-103777695D02*
X40784054Y-102977695D01*
X40784054Y-102977695D02*
X40707863Y-103091980D01*
X40707863Y-103091980D02*
X40631673Y-103168171D01*
X40631673Y-103168171D02*
X40555482Y-103206266D01*
X41507864Y-102977695D02*
X41584054Y-102977695D01*
X41584054Y-102977695D02*
X41660245Y-103015790D01*
X41660245Y-103015790D02*
X41698340Y-103053885D01*
X41698340Y-103053885D02*
X41736435Y-103130076D01*
X41736435Y-103130076D02*
X41774530Y-103282457D01*
X41774530Y-103282457D02*
X41774530Y-103472933D01*
X41774530Y-103472933D02*
X41736435Y-103625314D01*
X41736435Y-103625314D02*
X41698340Y-103701504D01*
X41698340Y-103701504D02*
X41660245Y-103739600D01*
X41660245Y-103739600D02*
X41584054Y-103777695D01*
X41584054Y-103777695D02*
X41507864Y-103777695D01*
X41507864Y-103777695D02*
X41431673Y-103739600D01*
X41431673Y-103739600D02*
X41393578Y-103701504D01*
X41393578Y-103701504D02*
X41355483Y-103625314D01*
X41355483Y-103625314D02*
X41317387Y-103472933D01*
X41317387Y-103472933D02*
X41317387Y-103282457D01*
X41317387Y-103282457D02*
X41355483Y-103130076D01*
X41355483Y-103130076D02*
X41393578Y-103053885D01*
X41393578Y-103053885D02*
X41431673Y-103015790D01*
X41431673Y-103015790D02*
X41507864Y-102977695D01*
X42536435Y-103777695D02*
X42079292Y-103777695D01*
X42307864Y-103777695D02*
X42307864Y-102977695D01*
X42307864Y-102977695D02*
X42231673Y-103091980D01*
X42231673Y-103091980D02*
X42155483Y-103168171D01*
X42155483Y-103168171D02*
X42079292Y-103206266D01*
X32059368Y-102977695D02*
X32516511Y-102977695D01*
X32287939Y-103777695D02*
X32287939Y-102977695D01*
X32783178Y-103777695D02*
X32783178Y-102977695D01*
X32783178Y-102977695D02*
X33087940Y-102977695D01*
X33087940Y-102977695D02*
X33164130Y-103015790D01*
X33164130Y-103015790D02*
X33202225Y-103053885D01*
X33202225Y-103053885D02*
X33240321Y-103130076D01*
X33240321Y-103130076D02*
X33240321Y-103244361D01*
X33240321Y-103244361D02*
X33202225Y-103320552D01*
X33202225Y-103320552D02*
X33164130Y-103358647D01*
X33164130Y-103358647D02*
X33087940Y-103396742D01*
X33087940Y-103396742D02*
X32783178Y-103396742D01*
X34002225Y-103777695D02*
X33545082Y-103777695D01*
X33773654Y-103777695D02*
X33773654Y-102977695D01*
X33773654Y-102977695D02*
X33697463Y-103091980D01*
X33697463Y-103091980D02*
X33621273Y-103168171D01*
X33621273Y-103168171D02*
X33545082Y-103206266D01*
X34268892Y-102977695D02*
X34802226Y-102977695D01*
X34802226Y-102977695D02*
X34459368Y-103777695D01*
X35449845Y-102977695D02*
X35297464Y-102977695D01*
X35297464Y-102977695D02*
X35221273Y-103015790D01*
X35221273Y-103015790D02*
X35183178Y-103053885D01*
X35183178Y-103053885D02*
X35106988Y-103168171D01*
X35106988Y-103168171D02*
X35068892Y-103320552D01*
X35068892Y-103320552D02*
X35068892Y-103625314D01*
X35068892Y-103625314D02*
X35106988Y-103701504D01*
X35106988Y-103701504D02*
X35145083Y-103739600D01*
X35145083Y-103739600D02*
X35221273Y-103777695D01*
X35221273Y-103777695D02*
X35373654Y-103777695D01*
X35373654Y-103777695D02*
X35449845Y-103739600D01*
X35449845Y-103739600D02*
X35487940Y-103701504D01*
X35487940Y-103701504D02*
X35526035Y-103625314D01*
X35526035Y-103625314D02*
X35526035Y-103434838D01*
X35526035Y-103434838D02*
X35487940Y-103358647D01*
X35487940Y-103358647D02*
X35449845Y-103320552D01*
X35449845Y-103320552D02*
X35373654Y-103282457D01*
X35373654Y-103282457D02*
X35221273Y-103282457D01*
X35221273Y-103282457D02*
X35145083Y-103320552D01*
X35145083Y-103320552D02*
X35106988Y-103358647D01*
X35106988Y-103358647D02*
X35068892Y-103434838D01*
%TO.C,*%
G36*
X37074994Y-146759475D02*
G01*
X37385728Y-146888999D01*
X37452521Y-146932910D01*
X37670536Y-147129981D01*
X37850474Y-147391615D01*
X37999875Y-147733011D01*
X38126280Y-148169367D01*
X38175374Y-148389647D01*
X38242764Y-148688513D01*
X38316393Y-148972862D01*
X38386444Y-149206800D01*
X38433799Y-149334638D01*
X38511133Y-149492706D01*
X38576362Y-149564032D01*
X38657107Y-149572263D01*
X38700564Y-149563028D01*
X38930643Y-149551610D01*
X39126443Y-149627934D01*
X39225563Y-149729884D01*
X39283143Y-149864976D01*
X39327964Y-150050598D01*
X39355601Y-150249708D01*
X39361629Y-150425268D01*
X39341621Y-150540234D01*
X39324897Y-150561235D01*
X39274854Y-150645198D01*
X39260363Y-150744309D01*
X39209859Y-150917571D01*
X39082743Y-151051491D01*
X38915609Y-151112267D01*
X38864572Y-151111216D01*
X38863159Y-151111187D01*
X38757309Y-151113980D01*
X38697545Y-151175368D01*
X38656138Y-151311071D01*
X38638842Y-151426991D01*
X38645796Y-151558012D01*
X38681873Y-151729832D01*
X38751945Y-151968148D01*
X38820698Y-152178897D01*
X38927080Y-152519335D01*
X38987066Y-152765825D01*
X39003386Y-152930962D01*
X38995964Y-152987195D01*
X38954419Y-153170321D01*
X38925989Y-153321909D01*
X38847691Y-153619483D01*
X38729989Y-153819502D01*
X38586696Y-153912234D01*
X38579482Y-153916903D01*
X38567040Y-153916179D01*
X38402763Y-153906621D01*
X38263771Y-153830269D01*
X38143801Y-153754103D01*
X38071254Y-153752063D01*
X38030861Y-153788339D01*
X37837466Y-153940393D01*
X37561196Y-154050695D01*
X37229952Y-154116124D01*
X36871638Y-154133560D01*
X36834341Y-154130046D01*
X36514156Y-154099884D01*
X36185407Y-154011974D01*
X36151356Y-153998514D01*
X35899653Y-153910239D01*
X35573824Y-153817540D01*
X35205612Y-153727271D01*
X34826756Y-153646288D01*
X34468996Y-153581444D01*
X34164073Y-153539595D01*
X33969003Y-153527221D01*
X33721671Y-153540750D01*
X33561489Y-153585303D01*
X33495262Y-153629877D01*
X33400135Y-153686988D01*
X33253688Y-153719261D01*
X33027811Y-153731832D01*
X32933368Y-153732533D01*
X32564920Y-153704751D01*
X32252905Y-153611416D01*
X31961740Y-153437537D01*
X31703141Y-153214329D01*
X31421892Y-152896701D01*
X31223910Y-152552710D01*
X31086592Y-152141941D01*
X31073700Y-152088730D01*
X31009705Y-151583598D01*
X31198760Y-151583598D01*
X31199303Y-151686841D01*
X31202781Y-151989268D01*
X31211149Y-152198281D01*
X31228480Y-152337783D01*
X31258842Y-152431678D01*
X31306306Y-152503869D01*
X31345954Y-152548049D01*
X31462454Y-152681902D01*
X31606502Y-152861732D01*
X31692251Y-152974909D01*
X31967483Y-153252966D01*
X32315178Y-153454243D01*
X32709772Y-153566421D01*
X32959932Y-153585835D01*
X33198899Y-153572342D01*
X33360846Y-153516941D01*
X33476194Y-153397364D01*
X33575364Y-153191341D01*
X33604910Y-153113685D01*
X33657702Y-152901402D01*
X33697679Y-152605466D01*
X33723800Y-152258954D01*
X33735022Y-151894940D01*
X33730301Y-151546502D01*
X33708597Y-151246714D01*
X33670460Y-151034149D01*
X33612621Y-150841696D01*
X33559585Y-150681970D01*
X33539242Y-150628568D01*
X33520297Y-150550450D01*
X33555840Y-150555932D01*
X33609624Y-150630038D01*
X33679629Y-150778407D01*
X33727125Y-150902853D01*
X33795268Y-151195065D01*
X33832011Y-151565852D01*
X33838486Y-151981070D01*
X33815824Y-152406573D01*
X33765157Y-152808218D01*
X33687618Y-153151858D01*
X33648760Y-153266917D01*
X33653797Y-153317256D01*
X33731957Y-153344255D01*
X33903948Y-153354365D01*
X33930646Y-153354736D01*
X34066454Y-153357937D01*
X34196371Y-153366481D01*
X34341406Y-153383646D01*
X34522569Y-153412709D01*
X34760872Y-153456949D01*
X35077325Y-153519644D01*
X35376184Y-153580257D01*
X35649709Y-153632321D01*
X35899787Y-153673388D01*
X36091850Y-153698106D01*
X36168101Y-153702875D01*
X36445297Y-153674027D01*
X36693722Y-153596885D01*
X36889144Y-153484077D01*
X37007333Y-153348231D01*
X37031264Y-153253023D01*
X37018868Y-153197195D01*
X36966267Y-153219625D01*
X36895497Y-153282353D01*
X36730968Y-153379952D01*
X36587529Y-153407307D01*
X36415328Y-153404715D01*
X36637780Y-153287315D01*
X36828020Y-153148624D01*
X36940755Y-152985543D01*
X36959959Y-152823463D01*
X36950542Y-152791753D01*
X36914486Y-152731076D01*
X36862025Y-152756550D01*
X36810844Y-152812640D01*
X36720700Y-152882862D01*
X36596552Y-152942628D01*
X36470920Y-152982407D01*
X36376322Y-152992669D01*
X36345276Y-152963882D01*
X36352791Y-152946888D01*
X36440838Y-152885509D01*
X36467226Y-152881955D01*
X36574414Y-152834563D01*
X36687089Y-152722024D01*
X36768893Y-152588799D01*
X36786764Y-152491230D01*
X36715854Y-152395270D01*
X36556472Y-152369551D01*
X36313973Y-152413881D01*
X36016293Y-152518731D01*
X35609794Y-152677942D01*
X35280435Y-152791216D01*
X35036840Y-152855915D01*
X34887632Y-152869403D01*
X34876277Y-152867409D01*
X34866885Y-152840279D01*
X34956674Y-152793332D01*
X35095467Y-152745349D01*
X35321772Y-152671008D01*
X35571084Y-152580918D01*
X35819139Y-152484942D01*
X36041673Y-152392940D01*
X36214420Y-152314776D01*
X36313116Y-152260312D01*
X36327121Y-152244761D01*
X36278861Y-152201419D01*
X36152078Y-152122548D01*
X35973410Y-152024620D01*
X35959151Y-152017220D01*
X35783225Y-151910343D01*
X35580148Y-151762851D01*
X35371914Y-151594004D01*
X35180515Y-151423061D01*
X35027943Y-151269281D01*
X34936193Y-151151922D01*
X34919485Y-151106791D01*
X34958884Y-151119158D01*
X35064363Y-151197442D01*
X35216848Y-151326859D01*
X35299738Y-151401518D01*
X35525431Y-151592002D01*
X35772735Y-151775488D01*
X35993384Y-151916513D01*
X36022283Y-151932390D01*
X36254633Y-152036272D01*
X36485353Y-152105957D01*
X36687699Y-152137079D01*
X36834928Y-152125269D01*
X36897846Y-152075373D01*
X36873202Y-152014567D01*
X36816175Y-152001661D01*
X36696110Y-151969886D01*
X36547212Y-151892940D01*
X36532649Y-151883421D01*
X36356668Y-151765568D01*
X36684995Y-151802839D01*
X36878945Y-151818916D01*
X36987465Y-151807907D01*
X37040323Y-151764930D01*
X37050634Y-151742877D01*
X37041999Y-151646731D01*
X36986279Y-151613035D01*
X36729988Y-151523989D01*
X36584732Y-151457401D01*
X36551308Y-151414332D01*
X36630512Y-151395841D01*
X36823140Y-151402986D01*
X36828712Y-151403444D01*
X37011911Y-151415642D01*
X37107100Y-151405409D01*
X37143062Y-151361417D01*
X37148585Y-151277562D01*
X37122109Y-151166184D01*
X37032357Y-151072891D01*
X36863842Y-150988491D01*
X36601075Y-150903794D01*
X36451953Y-150864153D01*
X36249323Y-150800869D01*
X36016513Y-150710471D01*
X35778744Y-150605163D01*
X35561239Y-150497150D01*
X35389217Y-150398637D01*
X35287901Y-150321829D01*
X35271448Y-150292889D01*
X35319121Y-150292522D01*
X35445674Y-150337973D01*
X35626410Y-150419958D01*
X35679638Y-150446319D01*
X35954474Y-150569471D01*
X36272264Y-150689660D01*
X36544881Y-150775244D01*
X36894767Y-150884262D01*
X37134589Y-150995828D01*
X37271531Y-151116530D01*
X37312782Y-151252955D01*
X37265525Y-151411691D01*
X37256848Y-151427892D01*
X37205442Y-151556160D01*
X37197357Y-151634756D01*
X37182376Y-151738300D01*
X37139160Y-151840068D01*
X37076994Y-151975861D01*
X37052024Y-152059101D01*
X36995370Y-152166330D01*
X36949357Y-152210164D01*
X36893356Y-152315905D01*
X36908362Y-152468676D01*
X36988958Y-152626495D01*
X37005774Y-152647313D01*
X37052769Y-152751000D01*
X37096485Y-152928238D01*
X37120763Y-153087465D01*
X37132076Y-153313369D01*
X37094656Y-153474185D01*
X36991176Y-153590323D01*
X36804312Y-153682195D01*
X36548584Y-153761534D01*
X36377858Y-153811216D01*
X36289557Y-153848515D01*
X36290799Y-153878593D01*
X36388704Y-153906612D01*
X36590391Y-153937733D01*
X36834341Y-153968712D01*
X37188913Y-153960308D01*
X37537011Y-153859368D01*
X37853161Y-153681084D01*
X38020355Y-153525714D01*
X38204474Y-153525714D01*
X38250740Y-153589528D01*
X38358064Y-153660746D01*
X38479234Y-153714743D01*
X38567040Y-153726889D01*
X38578119Y-153720627D01*
X38555029Y-153674962D01*
X38468507Y-153599869D01*
X38357291Y-153523592D01*
X38260119Y-153474372D01*
X38232386Y-153468560D01*
X38205095Y-153513734D01*
X38204474Y-153525714D01*
X38020355Y-153525714D01*
X38111892Y-153440650D01*
X38163710Y-153355959D01*
X38328742Y-153355959D01*
X38398682Y-153426750D01*
X38472261Y-153470602D01*
X38586696Y-153519880D01*
X38649377Y-153501246D01*
X38674383Y-153467548D01*
X38710092Y-153405699D01*
X38696730Y-153373644D01*
X38608979Y-153350159D01*
X38591062Y-153346752D01*
X38512442Y-153331802D01*
X38367663Y-153320849D01*
X38328742Y-153355959D01*
X38163710Y-153355959D01*
X38287732Y-153153260D01*
X38308657Y-153096599D01*
X38480829Y-153096599D01*
X38486316Y-153144243D01*
X38591062Y-153179026D01*
X38710933Y-153136959D01*
X38789251Y-153043272D01*
X38824624Y-152952318D01*
X38838329Y-152880328D01*
X38826579Y-152793168D01*
X38785584Y-152656704D01*
X38727033Y-152482722D01*
X38652034Y-152276709D01*
X38596321Y-152154211D01*
X38565353Y-152122770D01*
X38564586Y-152189933D01*
X38580890Y-152280685D01*
X38586132Y-152427283D01*
X38563616Y-152632344D01*
X38534983Y-152777615D01*
X38497163Y-152962219D01*
X38480829Y-153096599D01*
X38308657Y-153096599D01*
X38312103Y-153087267D01*
X38342925Y-152944003D01*
X38374764Y-152711958D01*
X38404442Y-152419598D01*
X38428780Y-152095388D01*
X38435121Y-151985820D01*
X38454192Y-151677881D01*
X38475648Y-151412231D01*
X38497346Y-151210624D01*
X38517140Y-151094816D01*
X38524758Y-151076582D01*
X38541643Y-151002616D01*
X38550169Y-150840530D01*
X38549283Y-150619296D01*
X38545450Y-150506205D01*
X38522238Y-150188482D01*
X38479168Y-149947824D01*
X38448785Y-149860575D01*
X38638247Y-149860575D01*
X38644355Y-149878060D01*
X38667640Y-149982901D01*
X38692460Y-150167768D01*
X38713968Y-150395539D01*
X38716641Y-150431558D01*
X38737726Y-150666953D01*
X38764692Y-150810335D01*
X38805175Y-150886998D01*
X38864572Y-150921536D01*
X38981244Y-150917401D01*
X39082444Y-150855259D01*
X39129243Y-150766608D01*
X39117191Y-150717146D01*
X39033357Y-150667296D01*
X38934268Y-150652856D01*
X38825717Y-150630963D01*
X38791079Y-150590242D01*
X38836587Y-150554195D01*
X38905399Y-150563913D01*
X39045511Y-150549035D01*
X39144814Y-150475102D01*
X39227166Y-150380595D01*
X39227900Y-150312941D01*
X39171047Y-150240768D01*
X39035796Y-150146700D01*
X38916967Y-150107678D01*
X38828801Y-150091279D01*
X38846936Y-150081700D01*
X38956475Y-150075040D01*
X39089051Y-150056814D01*
X39134878Y-150003625D01*
X39132457Y-149940256D01*
X39061232Y-149792707D01*
X38916119Y-149726066D01*
X38765495Y-149737436D01*
X38652799Y-149785627D01*
X38638247Y-149860575D01*
X38448785Y-149860575D01*
X38408395Y-149744590D01*
X38384479Y-149692970D01*
X38194705Y-149412762D01*
X38182844Y-149403111D01*
X37984383Y-149241622D01*
X37740818Y-149108303D01*
X37534834Y-149036258D01*
X37385619Y-149030385D01*
X37322340Y-149072624D01*
X37244252Y-149116855D01*
X37083883Y-149161015D01*
X36875889Y-149195569D01*
X36875049Y-149195670D01*
X36654302Y-149227496D01*
X36506575Y-149271790D01*
X36387903Y-149349903D01*
X36254322Y-149483188D01*
X36231042Y-149508431D01*
X36082195Y-149650358D01*
X35946127Y-149746219D01*
X35869681Y-149772948D01*
X35863663Y-149771633D01*
X35758439Y-149748644D01*
X35581265Y-149684971D01*
X35379371Y-149597013D01*
X35177398Y-149508313D01*
X35005776Y-149445077D01*
X34901913Y-149421031D01*
X34800533Y-149459841D01*
X34660672Y-149558684D01*
X34583362Y-149627835D01*
X34415792Y-149772822D01*
X34262879Y-149849713D01*
X34167063Y-149857839D01*
X34090271Y-149864351D01*
X33863617Y-149822576D01*
X33703017Y-149777535D01*
X33199925Y-149676983D01*
X32826373Y-149655627D01*
X32584272Y-149659366D01*
X32418686Y-149677825D01*
X32288872Y-149721867D01*
X32154088Y-149802356D01*
X32078659Y-149854995D01*
X31727238Y-150155679D01*
X31447511Y-150516605D01*
X31334836Y-150711516D01*
X31274563Y-150835802D01*
X31234704Y-150957194D01*
X31211373Y-151103652D01*
X31200687Y-151303134D01*
X31198760Y-151583598D01*
X31009705Y-151583598D01*
X31008722Y-151575839D01*
X31053065Y-151086415D01*
X31199277Y-150632580D01*
X31439908Y-150226454D01*
X31767507Y-149880157D01*
X32174624Y-149605811D01*
X32378425Y-149524885D01*
X33033125Y-149524885D01*
X33046316Y-149527449D01*
X33176005Y-149547661D01*
X33377353Y-149590803D01*
X33609108Y-149647957D01*
X33632921Y-149654247D01*
X33855766Y-149710413D01*
X34042927Y-149752012D01*
X34158373Y-149771131D01*
X34167063Y-149771568D01*
X34245515Y-149744044D01*
X34363132Y-149675780D01*
X34486612Y-149590249D01*
X34582651Y-149510926D01*
X34617945Y-149461283D01*
X34613995Y-149456544D01*
X34552509Y-149455766D01*
X34394962Y-149459366D01*
X34162508Y-149466715D01*
X33876298Y-149477185D01*
X33746275Y-149482317D01*
X33460418Y-149494894D01*
X33235606Y-149506869D01*
X33087841Y-149517210D01*
X33033125Y-149524885D01*
X32378425Y-149524885D01*
X32653808Y-149415535D01*
X32729218Y-149395547D01*
X32986471Y-149319413D01*
X33092629Y-149280152D01*
X35098527Y-149280152D01*
X35103319Y-149316236D01*
X35200722Y-149385375D01*
X35374647Y-149476486D01*
X35402554Y-149489606D01*
X35668373Y-149597847D01*
X35863663Y-149633536D01*
X36012244Y-149593856D01*
X36137935Y-149475989D01*
X36193803Y-149396021D01*
X36377291Y-149212106D01*
X36645244Y-149103776D01*
X36987268Y-149069349D01*
X37134060Y-149052990D01*
X37205135Y-149011487D01*
X37207245Y-149001523D01*
X37168973Y-148970655D01*
X37046300Y-148956407D01*
X36827445Y-148958140D01*
X36605975Y-148968790D01*
X36121673Y-149018760D01*
X35641120Y-149117269D01*
X35115710Y-149274356D01*
X35098527Y-149280152D01*
X33092629Y-149280152D01*
X33245439Y-149223637D01*
X33413446Y-149147097D01*
X33658847Y-149047468D01*
X33889027Y-149028596D01*
X34146918Y-149089767D01*
X34259079Y-149133008D01*
X34366258Y-149171643D01*
X34448298Y-149170529D01*
X34538179Y-149116446D01*
X34668881Y-148996176D01*
X34716390Y-148949717D01*
X34869345Y-148806397D01*
X34984832Y-148729181D01*
X35106415Y-148699329D01*
X35277657Y-148698103D01*
X35299598Y-148698847D01*
X35615665Y-148709966D01*
X35532183Y-148434875D01*
X35462258Y-148082903D01*
X35483879Y-147794674D01*
X35549685Y-147665814D01*
X36034035Y-147665814D01*
X36083311Y-147993626D01*
X36236171Y-148306620D01*
X36408599Y-148525905D01*
X36522941Y-148645154D01*
X36623948Y-148717794D01*
X36748769Y-148759114D01*
X36934552Y-148784399D01*
X37065145Y-148796079D01*
X37401838Y-148845564D01*
X37707465Y-148929435D01*
X37954136Y-149037776D01*
X38113959Y-149160674D01*
X38123170Y-149172163D01*
X38182844Y-149222639D01*
X38203880Y-149186585D01*
X38182237Y-149089572D01*
X38148073Y-149014585D01*
X38098546Y-148883120D01*
X38057769Y-148713137D01*
X38057306Y-148710473D01*
X37961114Y-148228469D01*
X37853812Y-147846357D01*
X37728324Y-147546778D01*
X37577574Y-147312374D01*
X37420370Y-147147954D01*
X37145351Y-146971348D01*
X36846992Y-146908315D01*
X36636809Y-146926513D01*
X36352516Y-147021851D01*
X36160929Y-147187191D01*
X36057165Y-147428520D01*
X36034035Y-147665814D01*
X35549685Y-147665814D01*
X35596109Y-147574906D01*
X35724234Y-147466653D01*
X35801885Y-147390147D01*
X35905224Y-147253637D01*
X35947727Y-147189220D01*
X36164332Y-146947760D01*
X36440365Y-146792932D01*
X36751896Y-146728811D01*
X37074994Y-146759475D01*
G37*
G36*
X33481325Y-152597452D02*
G01*
X33479510Y-152658740D01*
X33472526Y-152666867D01*
X33382220Y-152705542D01*
X33372803Y-152705974D01*
X33350993Y-152676212D01*
X33381602Y-152636559D01*
X33456270Y-152591739D01*
X33481325Y-152597452D01*
G37*
G36*
X33452973Y-152207359D02*
G01*
X33509443Y-152285068D01*
X33511633Y-152302274D01*
X33475491Y-152334078D01*
X33452973Y-152324680D01*
X33396502Y-152246972D01*
X33394312Y-152229766D01*
X33430455Y-152197962D01*
X33452973Y-152207359D01*
G37*
G36*
X32794939Y-150975265D02*
G01*
X32852925Y-151052481D01*
X32827394Y-151112319D01*
X32783265Y-151122140D01*
X32702458Y-151074909D01*
X32690386Y-151029261D01*
X32724580Y-150965022D01*
X32794939Y-150975265D01*
G37*
G36*
X32638162Y-153326998D02*
G01*
X32661056Y-153351239D01*
X32648415Y-153401993D01*
X32609319Y-153409900D01*
X32507969Y-153375481D01*
X32485074Y-153351239D01*
X32497715Y-153300486D01*
X32536811Y-153292579D01*
X32638162Y-153326998D01*
G37*
D13*
%TO.C,REF\u002A\u002A*%
X23790000Y-105310000D02*
X23790000Y-105610000D01*
X23790000Y-105310000D02*
X44790000Y-105310000D01*
X23790000Y-107710000D02*
X23790000Y-108110000D01*
X23790000Y-107977000D02*
X26797000Y-107977000D01*
X23790000Y-110310000D02*
X23790000Y-110710000D01*
X23790000Y-112810000D02*
X23790000Y-113210000D01*
X23790000Y-115410000D02*
X23790000Y-115810000D01*
X23790000Y-117910000D02*
X23790000Y-118310000D01*
X23790000Y-120410000D02*
X23790000Y-120810000D01*
X23790000Y-123010000D02*
X23790000Y-123410000D01*
X23790000Y-125510000D02*
X23790000Y-125910000D01*
X23790000Y-128110000D02*
X23790000Y-128510000D01*
X23790000Y-130610000D02*
X23790000Y-131010000D01*
X23790000Y-133110000D02*
X23790000Y-133510000D01*
X23790000Y-135710000D02*
X23790000Y-136110000D01*
X23790000Y-138210000D02*
X23790000Y-138610000D01*
X23790000Y-140810000D02*
X23790000Y-141210000D01*
X23790000Y-143310000D02*
X23790000Y-143710000D01*
X23790000Y-145910000D02*
X23790000Y-146310000D01*
X23790000Y-148410000D02*
X23790000Y-148810000D01*
X23790000Y-150910000D02*
X23790000Y-151310000D01*
X23790000Y-153510000D02*
X23790000Y-153910000D01*
X26797000Y-107977000D02*
X26797000Y-105310000D01*
X30590000Y-156310000D02*
X23790000Y-156310000D01*
X32790000Y-156310000D02*
X33190000Y-156310000D01*
X35390000Y-156310000D02*
X35790000Y-156310000D01*
X44790000Y-105310000D02*
X44790000Y-105610000D01*
X44790000Y-107710000D02*
X44790000Y-108110000D01*
X44790000Y-110310000D02*
X44790000Y-110710000D01*
X44790000Y-112810000D02*
X44790000Y-113210000D01*
X44790000Y-115410000D02*
X44790000Y-115810000D01*
X44790000Y-117910000D02*
X44790000Y-118310000D01*
X44790000Y-120410000D02*
X44790000Y-120810000D01*
X44790000Y-123010000D02*
X44790000Y-123410000D01*
X44790000Y-125510000D02*
X44790000Y-125910000D01*
X44790000Y-128110000D02*
X44790000Y-128510000D01*
X44790000Y-130610000D02*
X44790000Y-131010000D01*
X44790000Y-133110000D02*
X44790000Y-133510000D01*
X44790000Y-135710000D02*
X44790000Y-136110000D01*
X44790000Y-138210000D02*
X44790000Y-138610000D01*
X44790000Y-140810000D02*
X44790000Y-141210000D01*
X44790000Y-143310000D02*
X44790000Y-143710000D01*
X44790000Y-145910000D02*
X44790000Y-146310000D01*
X44790000Y-148410000D02*
X44790000Y-148810000D01*
X44790000Y-150910000D02*
X44790000Y-151310000D01*
X44790000Y-153510000D02*
X44790000Y-153910000D01*
X44790000Y-156310000D02*
X37990000Y-156310000D01*
X50099000Y-151638000D02*
G75*
G03*
X50099000Y-151638000I-950000J0D01*
G01*
X44765000Y-103378000D02*
G75*
G03*
X44765000Y-103378000I-950000J0D01*
G01*
%TO.C,\u002A\u002AREF*%
X37907000Y-103378000D02*
G75*
G03*
X37907000Y-103378000I-950000J0D01*
G01*
%TO.C,REF\u002A\u002A*%
X22997200Y-98653600D02*
G75*
G03*
X22997200Y-98653600I-950000J0D01*
G01*
X29144000Y-95504000D02*
G75*
G03*
X29144000Y-95504000I-950000J0D01*
G01*
X27112000Y-95961200D02*
G75*
G03*
X27112000Y-95961200I-950000J0D01*
G01*
X25080000Y-98653600D02*
G75*
G03*
X25080000Y-98653600I-950000J0D01*
G01*
X23048000Y-96088200D02*
G75*
G03*
X23048000Y-96088200I-950000J0D01*
G01*
X29194800Y-98628200D02*
G75*
G03*
X29194800Y-98628200I-950000J0D01*
G01*
X50395000Y-145415000D02*
G75*
G03*
X50395000Y-145415000I-1500000J0D01*
G01*
X25080000Y-95504000D02*
G75*
G03*
X25080000Y-95504000I-950000J0D01*
G01*
X48067000Y-119507000D02*
G75*
G03*
X48067000Y-119507000I-950000J0D01*
G01*
X27112000Y-99136200D02*
G75*
G03*
X27112000Y-99136200I-950000J0D01*
G01*
%TD*%
M02*
