%TF.GenerationSoftware,KiCad,Pcbnew,7.0.7*%
%TF.CreationDate,2023-10-06T13:44:46-06:00*%
%TF.ProjectId,pico_flatflex,7069636f-5f66-46c6-9174-666c65782e6b,rev?*%
%TF.SameCoordinates,Original*%
%TF.FileFunction,Profile,NP*%
%FSLAX46Y46*%
G04 Gerber Fmt 4.6, Leading zero omitted, Abs format (unit mm)*
G04 Created by KiCad (PCBNEW 7.0.7) date 2023-10-06 13:44:46*
%MOMM*%
%LPD*%
G01*
G04 APERTURE LIST*
%TA.AperFunction,Profile*%
%ADD10C,0.100000*%
%TD*%
G04 APERTURE END LIST*
D10*
X21971000Y-157099000D02*
X21463000Y-156591000D01*
X45212000Y-157099000D02*
X45669200Y-156591000D01*
X45720000Y-101854000D02*
X46736000Y-102870000D01*
X30480000Y-101854000D02*
X45720000Y-101854000D01*
X29464000Y-100838000D02*
X30480000Y-101854000D01*
X29464000Y-94361000D02*
X29464000Y-100838000D01*
X29083000Y-93980000D02*
X29464000Y-94361000D01*
X20574000Y-93980000D02*
X29083000Y-93980000D01*
X20193000Y-94361000D02*
X20574000Y-93980000D01*
X20193000Y-127889000D02*
X20193000Y-94361000D01*
X21463000Y-129159000D02*
X20193000Y-127889000D01*
X21463000Y-156591000D02*
X21463000Y-129159000D01*
X45212000Y-157099000D02*
X21971000Y-157099000D01*
X45669200Y-153670000D02*
X45669200Y-156591000D01*
X46355000Y-153035000D02*
X45669200Y-153670000D01*
X49530000Y-153035000D02*
X46355000Y-153035000D01*
X50673000Y-151892000D02*
X49530000Y-153035000D01*
X50673000Y-144653000D02*
X50673000Y-151892000D01*
X48387000Y-142367000D02*
X50673000Y-144653000D01*
X48387000Y-121589800D02*
X48387000Y-142367000D01*
X48387000Y-121335800D02*
X48387000Y-121589800D01*
X48387000Y-117856000D02*
X48387000Y-121335800D01*
X46736000Y-116078000D02*
X48387000Y-117856000D01*
X46736000Y-102870000D02*
X46736000Y-116078000D01*
X40513000Y-106283000D02*
G75*
G03*
X39513000Y-105283000I-1000000J0D01*
G01*
X32115000Y-105283000D02*
G75*
G03*
X31115000Y-106283000I0J-1000000D01*
G01*
X31115000Y-109998000D02*
X31115000Y-106283000D01*
X39513000Y-110998000D02*
G75*
G03*
X40513000Y-109998000I0J1000000D01*
G01*
X32115000Y-105283000D02*
X39513000Y-105283000D01*
X40513000Y-106283000D02*
X40513000Y-109998000D01*
X39513000Y-110998000D02*
X32115000Y-110998000D01*
X31115000Y-109998000D02*
G75*
G03*
X32115000Y-110998000I1000000J0D01*
G01*
M02*
